# This file uses centimeters as units for non-parametric coordinates.

mtllib ad2.mtl
g default
v 85.658165 11.947085 1.259926
v 85.658165 11.947085 2.670032
v 85.658165 16.941925 1.259926
v 85.658165 16.941925 2.670032
v 86.048912 16.941925 1.259926
v 86.048912 16.941925 2.670032
v 86.048912 11.947085 1.259926
v 86.048912 11.947085 2.670032
vt 0.070937 0.633669
vt 0.085270 0.633669
vt 0.085270 0.648002
vt 0.070937 0.648002
vt 0.226110 0.632817
vt 0.240443 0.632817
vt 0.240443 0.647150
vt 0.226110 0.647150
vt 0.172908 0.467554
vt 0.180523 0.467554
vt 0.180523 0.475170
vt 0.172908 0.475170
vt 0.257145 0.469469
vt 0.264760 0.469469
vt 0.264760 0.477085
vt 0.257145 0.477085
vt 0.492122 0.617743
vt 0.519350 0.617743
vt 0.519350 0.644971
vt 0.492122 0.644971
vt 0.000000 0.611876
vt 0.027228 0.611876
vt 0.027228 0.639104
vt 0.000000 0.639104
vn -1.000000 0.000000 0.000000
vn -1.000000 0.000000 0.000000
vn -1.000000 0.000000 0.000000
vn -1.000000 0.000000 0.000000
vn 0.000000 1.000000 0.000000
vn 0.000000 1.000000 0.000000
vn 0.000000 1.000000 0.000000
vn 0.000000 1.000000 0.000000
vn 1.000000 0.000000 0.000000
vn 1.000000 0.000000 0.000000
vn 1.000000 0.000000 0.000000
vn 1.000000 0.000000 0.000000
vn 0.000000 -1.000000 0.000000
vn 0.000000 -1.000000 0.000000
vn 0.000000 -1.000000 0.000000
vn 0.000000 -1.000000 0.000000
vn 0.000000 0.000000 1.000000
vn 0.000000 0.000000 1.000000
vn 0.000000 0.000000 1.000000
vn 0.000000 0.000000 1.000000
vn 0.000000 0.000000 -1.000000
vn 0.000000 0.000000 -1.000000
vn 0.000000 0.000000 -1.000000
vn 0.000000 0.000000 -1.000000
s off
g ad1 group21 group22
usemtl initialShadingGroup
f 1/17/1 2/18/2 4/19/3 3/20/4
f 3/9/5 4/10/6 6/11/7 5/12/8
f 5/21/9 6/22/10 8/23/11 7/24/12
f 7/13/13 8/14/14 2/15/15 1/16/16
f 2/1/17 8/2/18 6/3/19 4/4/20
f 7/5/21 1/6/22 3/7/23 5/8/24
