# This file uses centimeters as units for non-parametric coordinates.

mtllib ad5.mtl
g default
v 82.757057 23.896879 -0.519198
v 82.757057 23.896879 3.588394
v 82.757057 30.031965 -0.519198
v 82.757057 30.031965 3.588394
v 83.147804 30.031965 -0.519198
v 83.147804 30.031965 3.588394
v 83.147804 23.896879 -0.519198
v 83.147804 23.896879 3.588394
vt 0.523157 0.630010
vt 0.539042 0.630010
vt 0.539042 0.645895
vt 0.523157 0.645895
vt 0.611827 0.629115
vt 0.627712 0.629115
vt 0.627712 0.645000
vt 0.611827 0.645000
vt 0.975377 0.634852
vt 0.988375 0.634852
vt 0.988375 0.647849
vt 0.975377 0.647849
vt 0.172908 0.638734
vt 0.185906 0.638734
vt 0.185906 0.651732
vt 0.172908 0.651732
vt 0.438920 0.525246
vt 0.490423 0.525246
vt 0.490423 0.576750
vt 0.438920 0.576750
vt 0.000000 0.525246
vt 0.051503 0.525246
vt 0.051503 0.576750
vt 0.000000 0.576750
vn -1.000000 0.000000 0.000000
vn -1.000000 0.000000 0.000000
vn -1.000000 0.000000 0.000000
vn -1.000000 0.000000 0.000000
vn 0.000000 1.000000 0.000000
vn 0.000000 1.000000 0.000000
vn 0.000000 1.000000 0.000000
vn 0.000000 1.000000 0.000000
vn 1.000000 0.000000 0.000000
vn 1.000000 0.000000 0.000000
vn 1.000000 0.000000 0.000000
vn 1.000000 0.000000 0.000000
vn 0.000000 -1.000000 0.000000
vn 0.000000 -1.000000 0.000000
vn 0.000000 -1.000000 0.000000
vn 0.000000 -1.000000 0.000000
vn 0.000000 0.000000 1.000000
vn 0.000000 0.000000 1.000000
vn 0.000000 0.000000 1.000000
vn 0.000000 0.000000 1.000000
vn 0.000000 0.000000 -1.000000
vn 0.000000 0.000000 -1.000000
vn 0.000000 0.000000 -1.000000
vn 0.000000 0.000000 -1.000000
s off
g ad3 group21 group22
usemtl initialShadingGroup
f 1/17/1 2/18/2 4/19/3 3/20/4
f 3/9/5 4/10/6 6/11/7 5/12/8
f 5/21/9 6/22/10 8/23/11 7/24/12
f 7/13/13 8/14/14 2/15/15 1/16/16
f 2/1/17 8/2/18 6/3/19 4/4/20
f 7/5/21 1/6/22 3/7/23 5/8/24
