# This file uses centimeters as units for non-parametric coordinates.

mtllib ad6.mtl
g default
v 88.168083 17.845158 0.068223
v 88.168083 17.845158 3.664900
v 88.168083 20.350182 0.068223
v 88.168083 20.350182 3.664900
v 88.220161 20.350182 0.068223
v 88.220161 20.350182 3.664900
v 88.220161 17.845158 0.068223
v 88.220161 17.845158 3.664900
vt 0.266012 0.480010
vt 0.269717 0.480010
vt 0.269717 0.483716
vt 0.266012 0.483716
vt 0.261578 0.480010
vt 0.265284 0.480010
vt 0.265284 0.483716
vt 0.261578 0.483716
vt 0.713799 0.000022
vt 0.718239 0.000022
vt 0.718239 0.004462
vt 0.713799 0.004462
vt 0.749267 0.002543
vt 0.753707 0.002543
vt 0.753707 0.006983
vt 0.749267 0.006983
vt 0.492122 0.586947
vt 0.522917 0.586947
vt 0.522917 0.617743
vt 0.492122 0.617743
vt 0.762567 0.583274
vt 0.793362 0.583274
vt 0.793362 0.614069
vt 0.762567 0.614069
vn -1.000000 0.000000 0.000000
vn -1.000000 0.000000 0.000000
vn -1.000000 0.000000 0.000000
vn -1.000000 0.000000 0.000000
vn 0.000000 1.000000 0.000000
vn 0.000000 1.000000 0.000000
vn 0.000000 1.000000 0.000000
vn 0.000000 1.000000 0.000000
vn 1.000000 0.000000 0.000000
vn 1.000000 0.000000 0.000000
vn 1.000000 0.000000 0.000000
vn 1.000000 0.000000 0.000000
vn 0.000000 -1.000000 0.000000
vn 0.000000 -1.000000 0.000000
vn 0.000000 -1.000000 0.000000
vn 0.000000 -1.000000 0.000000
vn 0.000000 0.000000 1.000000
vn 0.000000 0.000000 1.000000
vn 0.000000 0.000000 1.000000
vn 0.000000 0.000000 1.000000
vn 0.000000 0.000000 -1.000000
vn 0.000000 0.000000 -1.000000
vn 0.000000 0.000000 -1.000000
vn 0.000000 0.000000 -1.000000
s off
g ad6 group21 group22
usemtl initialShadingGroup
f 1/17/1 2/18/2 4/19/3 3/20/4
f 3/9/5 4/10/6 6/11/7 5/12/8
f 5/21/9 6/22/10 8/23/11 7/24/12
f 7/13/13 8/14/14 2/15/15 1/16/16
f 2/1/17 8/2/18 6/3/19 4/4/20
f 7/5/21 1/6/22 3/7/23 5/8/24
