# This file uses centimeters as units for non-parametric coordinates.

mtllib ad8.mtl
g default
v 88.313873 15.401454 1.736126
v 87.671249 15.401454 5.274928
v 88.313873 17.906479 1.736126
v 87.671249 17.906479 5.274928
v 88.365112 17.906479 1.745431
v 87.722488 17.906479 5.284232
v 88.365112 15.401454 1.745431
v 87.722488 15.401454 5.284232
vt 0.181775 0.480387
vt 0.185480 0.480387
vt 0.185480 0.484093
vt 0.181775 0.484093
vt 0.221677 0.480436
vt 0.225382 0.480436
vt 0.225382 0.484141
vt 0.221677 0.484141
vt 0.727099 0.007801
vt 0.731539 0.007801
vt 0.731539 0.012241
vt 0.727099 0.012241
vt 0.172908 0.388293
vt 0.177348 0.388293
vt 0.177348 0.392733
vt 0.172908 0.392733
vt 0.523157 0.599215
vt 0.553952 0.599215
vt 0.553952 0.630010
vt 0.523157 0.630010
vt 0.554191 0.577143
vt 0.584987 0.577143
vt 0.584987 0.607938
vt 0.554191 0.607938
vn -0.983909 0.000000 -0.178672
vn -0.983909 0.000000 -0.178672
vn -0.983909 0.000000 -0.178672
vn -0.983909 0.000000 -0.178672
vn 0.000000 1.000000 0.000002
vn 0.000000 1.000000 0.000002
vn 0.000000 1.000000 0.000002
vn 0.000000 1.000000 0.000002
vn 0.983909 0.000000 0.178672
vn 0.983909 0.000000 0.178672
vn 0.983909 0.000000 0.178672
vn 0.983909 0.000000 0.178672
vn 0.000000 -1.000000 -0.000002
vn 0.000000 -1.000000 -0.000002
vn 0.000000 -1.000000 -0.000002
vn 0.000000 -1.000000 -0.000002
vn -0.178660 0.000000 0.983911
vn -0.178660 0.000000 0.983911
vn -0.178660 0.000000 0.983911
vn -0.178660 0.000000 0.983911
vn 0.178663 0.000000 -0.983910
vn 0.178663 0.000000 -0.983910
vn 0.178663 0.000000 -0.983910
vn 0.178663 0.000000 -0.983910
s off
g ad5 group21 group22
usemtl initialShadingGroup
f 1/17/1 2/18/2 4/19/3 3/20/4
f 3/9/5 4/10/6 6/11/7 5/12/8
f 5/21/9 6/22/10 8/23/11 7/24/12
f 7/13/13 8/14/14 2/15/15 1/16/16
f 2/1/17 8/2/18 6/3/19 4/4/20
f 7/5/21 1/6/22 3/7/23 5/8/24
