# This file uses centimeters as units for non-parametric coordinates.

mtllib building5.mtl
g default
v 82.205734 -1.138856 33.039894
v 95.554565 -1.138856 33.039894
v 82.205734 36.705757 33.039894
v 95.554565 36.705757 33.039894
v 82.205734 36.705757 26.357035
v 95.554565 36.705757 26.357035
v 82.205734 -1.138856 26.357035
v 95.554565 -1.138856 26.357035
vt 0.580183 0.243167
vt 0.731513 0.243167
vt 0.731513 0.486334
vt 0.580183 0.486334
vt 0.574956 0.000001
vt 0.726286 0.000001
vt 0.726286 0.243167
vt 0.574956 0.243167
vt 0.360654 0.602393
vt 0.474583 0.602393
vt 0.474583 0.716322
vt 0.360654 0.716322
vt 0.731762 0.364305
vt 0.845691 0.364305
vt 0.845691 0.478234
vt 0.731762 0.478234
vt 0.214302 0.000001
vt 0.428180 0.000001
vt 0.428180 0.343673
vt 0.214302 0.343673
vt 0.000000 0.000001
vt 0.213877 0.000001
vt 0.213877 0.343674
vt 0.000000 0.343674
vn 0.000000 0.000000 1.000000
vn 0.000000 0.000000 1.000000
vn 0.000000 0.000000 1.000000
vn 0.000000 0.000000 1.000000
vn 0.000000 1.000000 0.000000
vn 0.000000 1.000000 0.000000
vn 0.000000 1.000000 0.000000
vn 0.000000 1.000000 0.000000
vn 0.000000 0.000000 -1.000000
vn 0.000000 0.000000 -1.000000
vn 0.000000 0.000000 -1.000000
vn 0.000000 0.000000 -1.000000
vn 0.000000 -1.000000 0.000000
vn 0.000000 -1.000000 0.000000
vn 0.000000 -1.000000 0.000000
vn 0.000000 -1.000000 0.000000
vn 1.000000 0.000000 0.000000
vn 1.000000 0.000000 0.000000
vn 1.000000 0.000000 0.000000
vn 1.000000 0.000000 0.000000
vn -1.000000 0.000000 0.000000
vn -1.000000 0.000000 0.000000
vn -1.000000 0.000000 0.000000
vn -1.000000 0.000000 0.000000
s off
g buiolding group17
usemtl initialShadingGroup
f 1/17/1 2/18/2 4/19/3 3/20/4
f 3/9/5 4/10/6 6/11/7 5/12/8
f 5/21/9 6/22/10 8/23/11 7/24/12
f 7/13/13 8/14/14 2/15/15 1/16/16
f 2/1/17 8/2/18 6/3/19 4/4/20
f 7/5/21 1/6/22 3/7/23 5/8/24
