# This file uses centimeters as units for non-parametric coordinates.

mtllib building9.mtl
g default
v 136.372147 0.260940 9.728428
v 127.510658 0.260940 9.728428
v 136.372147 17.243896 9.728428
v 136.372147 17.243896 21.227026
v 136.372147 0.260940 21.227026
v 127.510658 0.260940 21.227026
v 131.335815 17.243896 9.728428
v 131.335815 17.243896 21.227026
v 131.335815 0.260940 21.227026
v 131.335815 0.260940 9.728428
v 127.510658 13.053861 9.728428
v 131.335815 13.053861 9.728428
v 136.372147 13.053861 9.728428
v 136.372147 13.053861 21.227026
v 131.335815 13.053861 21.227026
v 127.510658 13.053861 21.227026
vt 0.269823 0.924868
vt 0.269823 0.827343
vt 0.343287 0.827343
vt 0.343287 0.924868
vt 0.669369 0.549009
vt 0.766894 0.549009
vt 0.766894 0.622472
vt 0.669369 0.622472
vt 0.766894 0.646534
vt 0.669369 0.646534
vt 0.181612 0.990403
vt 0.181612 0.946388
vt 0.259058 0.946388
vt 0.259058 0.990403
vt 0.259058 0.912957
vt 0.181612 0.912957
vt 0.259445 0.924868
vt 0.299483 0.924868
vt 0.299483 0.995315
vt 0.259445 0.995315
vt 0.329892 0.924868
vt 0.329892 0.995315
vt 0.181612 0.827342
vt 0.230270 0.827342
vt 0.230270 0.891834
vt 0.181612 0.891834
vt 0.267226 0.827342
vt 0.267226 0.891834
vt 0.230270 0.912957
vt 0.181612 0.912957
vt 0.789081 0.634624
vt 0.789081 0.585967
vt 0.853573 0.585967
vt 0.853573 0.634624
vt 0.767958 0.634624
vt 0.767958 0.585967
vt 0.789081 0.549010
vt 0.853573 0.549010
vn 0.000000 0.000000 -1.000000
vn 0.000000 0.000000 -1.000000
vn 0.000000 0.000000 -1.000000
vn 0.000000 0.000000 -1.000000
vn 0.000000 1.000000 0.000000
vn -0.427461 0.904034 0.000000
vn -0.427461 0.904034 0.000000
vn 0.000000 1.000000 0.000000
vn 0.000000 0.000000 1.000000
vn 0.000000 0.000000 1.000000
vn 0.000000 0.000000 1.000000
vn 0.000000 0.000000 1.000000
vn 0.000000 -1.000000 0.000000
vn 0.000000 -1.000000 0.000000
vn 0.000000 -1.000000 0.000000
vn 0.000000 -1.000000 0.000000
vn -1.000000 0.000000 0.000000
vn -1.000000 0.000000 0.000000
vn -0.975561 0.219730 0.000000
vn -0.975561 0.219730 0.000000
vn 1.000000 0.000000 0.000000
vn 1.000000 0.000000 0.000000
vn 1.000000 0.000000 0.000000
vn 1.000000 0.000000 0.000000
vn 0.000000 0.000000 1.000000
vn 0.000000 0.000000 1.000000
vn 0.000000 -1.000000 0.000000
vn 0.000000 -1.000000 0.000000
vn 0.000000 0.000000 -1.000000
vn 0.000000 0.000000 -1.000000
vn 0.000000 0.000000 -1.000000
vn 0.000000 0.000000 -1.000000
vn 1.000000 0.000000 0.000000
vn 1.000000 0.000000 0.000000
vn 0.000000 0.000000 1.000000
vn 0.000000 0.000000 1.000000
s 1
g building25 group19
usemtl initialShadingGroup
f 1/23/1 10/24/2 12/25/3 13/26/4
s 2
f 3/11/5 7/12/6 8/13/7 4/14/8
s 3
f 14/31/9 15/32/10 9/33/11 5/34/12
s 4
f 5/17/13 9/18/14 10/19/15 1/20/16
s 2
f 2/1/17 6/2/18 16/3/19 11/4/20
s 5
f 5/5/21 1/6/22 13/7/23 14/8/24
s 2
f 16/15/19 8/13/7 7/12/6 11/16/20
s 3
f 9/33/11 15/32/10 16/37/25 6/38/26
s 4
f 10/19/15 9/18/14 6/21/27 2/22/28
s 1
f 12/25/3 10/24/2 2/27/29 11/28/30
f 7/29/31 12/25/3 11/28/30
f 13/26/4 12/25/3 7/29/31 3/30/32
s 5
f 14/8/24 13/7/23 3/9/33 4/10/34
s 3
f 4/35/35 8/36/36 15/32/10 14/31/9
f 16/37/25 15/32/10 8/36/36
