# This file uses centimeters as units for non-parametric coordinates.

mtllib building13.mtl
g default
v 115.731438 0.260940 -4.111174
v 128.260941 0.260940 -4.111174
v 115.731438 16.526718 -4.111174
v 128.260941 16.526718 -4.111174
v 115.731438 16.526718 -15.515793
v 128.260941 16.526718 -15.515793
v 115.731438 0.260940 -15.515793
v 128.260941 0.260940 -15.515793
v 116.878609 16.526718 -5.155357
v 127.113754 16.526718 -5.155357
v 127.113754 16.526718 -14.471607
v 116.878609 16.526718 -14.471607
v 116.878609 18.215881 -5.155357
v 127.113754 18.215881 -5.155357
v 127.113754 18.215881 -14.471607
v 116.878609 18.215881 -14.471607
v 118.602776 18.215881 -6.724738
v 125.389587 18.215881 -6.724738
v 125.389587 18.215881 -12.902225
v 118.602776 18.215881 -12.902225
v 118.602776 19.767525 -6.724738
v 125.389587 19.767525 -6.724738
v 125.389587 19.767525 -12.902225
v 118.602776 19.767525 -12.902225
v 114.705238 0.186629 -8.037192
v 114.705238 0.186629 -6.296556
v 114.705238 2.786438 -8.037192
v 114.705238 2.786438 -6.296556
v 115.605827 2.786438 -8.037192
v 115.605827 2.786438 -6.296556
v 115.605827 0.186629 -8.037192
v 115.605827 0.186629 -6.296556
v 114.548012 0.270160 -5.852277
v 114.548012 0.270160 -4.111640
v 114.548012 2.869970 -5.852277
v 114.548012 2.869970 -4.111640
v 115.448601 2.869970 -5.852277
v 115.448601 2.869970 -4.111640
v 115.448601 0.270160 -5.852277
v 115.448601 0.270160 -4.111640
vt 0.544835 0.815053
vt 0.624427 0.815053
vt 0.624427 0.928570
vt 0.544835 0.928570
vt 0.627858 0.815053
vt 0.707449 0.815053
vt 0.707449 0.928570
vt 0.627858 0.928570
vt 0.980703 0.112382
vt 0.980703 0.047365
vt 0.992492 0.047365
vt 0.992492 0.112382
vt 0.980703 0.177399
vt 0.980703 0.112382
vt 0.992492 0.112382
vt 0.992492 0.177399
vt 0.892492 0.205100
vt 0.892492 0.161988
vt 0.903321 0.161988
vt 0.903321 0.205100
vt 0.908058 0.205100
vt 0.908058 0.161988
vt 0.918887 0.161988
vt 0.918887 0.205100
vt 0.985892 0.247906
vt 0.998040 0.247906
vt 0.998040 0.266050
vt 0.985892 0.266050
vt 0.686705 0.254840
vt 0.674558 0.254840
vt 0.674558 0.236697
vt 0.686705 0.236697
vt 0.804280 0.236696
vt 0.816428 0.236696
vt 0.816428 0.254840
vt 0.804280 0.254840
vt 0.702272 0.254841
vt 0.690124 0.254841
vt 0.690124 0.236697
vt 0.702272 0.236697
vt 0.949570 0.047365
vt 0.949570 0.000000
vt 0.992682 0.000000
vt 0.992682 0.047365
vt 0.347657 0.998210
vt 0.347657 0.910768
vt 0.427249 0.910768
vt 0.427249 0.998210
vt 0.856169 0.986488
vt 0.856169 0.899046
vt 0.863457 0.907052
vt 0.863457 0.978482
vt 0.935761 0.899046
vt 0.928474 0.907052
vt 0.935761 0.986488
vt 0.928474 0.978482
vt 0.544835 1.000000
vt 0.544835 0.928570
vt 0.555788 0.940603
vt 0.555788 0.987967
vt 0.609852 0.928570
vt 0.598900 0.940603
vt 0.609852 1.000000
vt 0.598900 0.987967
vt 0.243879 0.299530
vt 0.243879 0.287382
vt 0.250164 0.287382
vt 0.250164 0.299530
vt 0.260541 0.287382
vt 0.260541 0.299530
vt 0.254256 0.299530
vt 0.254256 0.287382
vt 0.819847 0.271986
vt 0.819847 0.259838
vt 0.826132 0.259838
vt 0.826132 0.271986
vt 0.976610 0.165079
vt 0.976610 0.177227
vt 0.970325 0.177227
vt 0.970325 0.165079
vt 0.456624 0.815053
vt 0.544066 0.815053
vt 0.544066 0.928570
vt 0.456624 0.928570
vt 0.088211 0.682056
vt 0.175654 0.682056
vt 0.175654 0.795573
vt 0.088211 0.795573
vt 0.965136 0.118795
vt 0.965136 0.047365
vt 0.976925 0.047365
vt 0.976925 0.118795
vt 0.961358 0.047365
vt 0.961358 0.118795
vt 0.949570 0.118795
vt 0.949570 0.047365
vt 0.985892 0.224764
vt 0.985892 0.177399
vt 0.996721 0.177399
vt 0.996721 0.224764
vt 0.981154 0.177399
vt 0.981154 0.224764
vt 0.970325 0.224764
vt 0.970325 0.177399
vt 0.233501 0.287382
vt 0.239786 0.287382
vt 0.239786 0.305526
vt 0.233501 0.305526
vt 0.955855 0.305157
vt 0.949570 0.305157
vt 0.949570 0.287013
vt 0.955855 0.287013
vt 0.264634 0.274505
vt 0.270919 0.274505
vt 0.270919 0.292648
vt 0.264634 0.292648
vt 0.945477 0.203274
vt 0.939192 0.203274
vt 0.939192 0.185130
vt 0.945477 0.185130
vn 0.000000 0.000000 1.000000
vn 0.000000 0.000000 1.000000
vn 0.000000 0.000000 1.000000
vn 0.000000 0.000000 1.000000
vn 0.000000 1.000000 0.000000
vn 0.000000 1.000000 0.000000
vn 0.000000 1.000000 0.000000
vn 0.000000 1.000000 0.000000
vn 0.000000 0.000000 -1.000000
vn 0.000000 0.000000 -1.000000
vn 0.000000 0.000000 -1.000000
vn 0.000000 0.000000 -1.000000
vn 0.000000 -1.000000 0.000000
vn 0.000000 -1.000000 0.000000
vn 0.000000 -1.000000 0.000000
vn 0.000000 -1.000000 0.000000
vn 1.000000 0.000000 0.000000
vn 1.000000 0.000000 0.000000
vn 1.000000 0.000000 0.000000
vn 1.000000 0.000000 0.000000
vn -1.000000 0.000000 0.000000
vn -1.000000 0.000000 0.000000
vn -1.000000 0.000000 0.000000
vn -1.000000 0.000000 0.000000
vn 0.000000 1.000000 0.000000
vn 0.000000 1.000000 0.000000
vn 0.000000 1.000000 0.000000
vn 0.000000 1.000000 0.000000
vn 0.000000 1.000000 0.000000
vn 0.000000 1.000000 0.000000
vn 0.000000 1.000000 0.000000
vn 0.000000 1.000000 0.000000
vn 0.000000 1.000000 0.000000
vn 0.000000 1.000000 0.000000
vn 0.000000 1.000000 0.000000
vn 0.000000 1.000000 0.000000
vn 0.000000 1.000000 0.000000
vn 0.000000 1.000000 0.000000
vn 0.000000 1.000000 0.000000
vn 0.000000 1.000000 0.000000
vn 0.000000 0.000000 1.000000
vn 0.000000 0.000000 1.000000
vn 0.000000 0.000000 1.000000
vn 0.000000 0.000000 1.000000
vn 1.000000 0.000000 0.000000
vn 1.000000 0.000000 0.000000
vn 1.000000 0.000000 0.000000
vn 1.000000 0.000000 0.000000
vn 0.000000 0.000000 -1.000000
vn 0.000000 0.000000 -1.000000
vn 0.000000 0.000000 -1.000000
vn 0.000000 0.000000 -1.000000
vn -1.000000 0.000000 0.000000
vn -1.000000 0.000000 0.000000
vn -1.000000 0.000000 0.000000
vn -1.000000 0.000000 0.000000
vn 0.000000 1.000000 0.000001
vn 0.000000 1.000000 0.000001
vn 0.000000 1.000000 0.000001
vn 0.000000 1.000000 0.000001
vn 0.000000 1.000000 0.000000
vn 0.000000 1.000000 0.000000
vn 0.000000 1.000000 0.000000
vn 0.000000 1.000000 0.000000
vn 0.000000 1.000000 -0.000001
vn 0.000000 1.000000 -0.000001
vn 0.000000 1.000000 -0.000001
vn 0.000000 1.000000 -0.000001
vn 0.000000 1.000000 0.000000
vn 0.000000 1.000000 0.000000
vn 0.000000 1.000000 0.000000
vn 0.000000 1.000000 0.000000
vn 0.000000 0.000000 1.000000
vn 0.000000 0.000000 1.000000
vn 0.000000 0.000000 1.000000
vn 0.000000 0.000000 1.000000
vn 1.000000 0.000000 0.000000
vn 1.000000 0.000000 0.000000
vn 1.000000 0.000000 0.000000
vn 1.000000 0.000000 0.000000
vn 0.000000 0.000000 -1.000000
vn 0.000000 0.000000 -1.000000
vn 0.000000 0.000000 -1.000000
vn 0.000000 0.000000 -1.000000
vn -1.000000 0.000000 0.000000
vn -1.000000 0.000000 0.000000
vn -1.000000 0.000000 0.000000
vn -1.000000 0.000000 0.000000
vn -1.000000 0.000000 0.000000
vn -1.000000 0.000000 0.000000
vn -1.000000 0.000000 0.000000
vn -1.000000 0.000000 0.000000
vn 0.000000 1.000000 0.000000
vn 0.000000 1.000000 0.000000
vn 0.000000 1.000000 0.000000
vn 0.000000 1.000000 0.000000
vn 1.000000 0.000000 0.000000
vn 1.000000 0.000000 0.000000
vn 1.000000 0.000000 0.000000
vn 1.000000 0.000000 0.000000
vn 0.000000 -1.000000 0.000000
vn 0.000000 -1.000000 0.000000
vn 0.000000 -1.000000 0.000000
vn 0.000000 -1.000000 0.000000
vn 0.000000 0.000000 1.000000
vn 0.000000 0.000000 1.000000
vn 0.000000 0.000000 1.000000
vn 0.000000 0.000000 1.000000
vn 0.000000 0.000000 -1.000000
vn 0.000000 0.000000 -1.000000
vn 0.000000 0.000000 -1.000000
vn 0.000000 0.000000 -1.000000
vn -1.000000 0.000000 0.000000
vn -1.000000 0.000000 0.000000
vn -1.000000 0.000000 0.000000
vn -1.000000 0.000000 0.000000
vn 0.000000 1.000000 0.000000
vn 0.000000 1.000000 0.000000
vn 0.000000 1.000000 0.000000
vn 0.000000 1.000000 0.000000
vn 1.000000 0.000000 0.000000
vn 1.000000 0.000000 0.000000
vn 1.000000 0.000000 0.000000
vn 1.000000 0.000000 0.000000
vn 0.000000 -1.000000 0.000000
vn 0.000000 -1.000000 0.000000
vn 0.000000 -1.000000 0.000000
vn 0.000000 -1.000000 0.000000
vn 0.000000 0.000000 1.000000
vn 0.000000 0.000000 1.000000
vn 0.000000 0.000000 1.000000
vn 0.000000 0.000000 1.000000
vn 0.000000 0.000000 -1.000000
vn 0.000000 0.000000 -1.000000
vn 0.000000 0.000000 -1.000000
vn 0.000000 0.000000 -1.000000
s off
g building6 group19
usemtl initialShadingGroup
f 1/81/1 2/82/2 4/83/3 3/84/4
f 21/41/5 22/42/6 23/43/7 24/44/8
f 5/85/9 6/86/10 8/87/11 7/88/12
f 7/45/13 8/46/14 2/47/15 1/48/16
f 2/1/17 8/2/18 6/3/19 4/4/20
f 7/5/21 1/6/22 3/7/23 5/8/24
f 3/49/25 4/50/26 10/51/27 9/52/28
f 4/50/29 6/53/30 11/54/31 10/51/32
f 6/53/33 5/55/34 12/56/35 11/54/36
f 5/55/37 3/49/38 9/52/39 12/56/40
f 9/89/41 10/90/42 14/91/43 13/92/44
f 10/9/45 11/10/46 15/11/47 14/12/48
f 11/93/49 12/94/50 16/95/51 15/96/52
f 12/13/53 9/14/54 13/15/55 16/16/56
f 13/57/57 14/58/58 18/59/59 17/60/60
f 14/58/61 15/61/62 19/62/63 18/59/64
f 15/61/65 16/63/66 20/64/67 19/62/68
f 16/63/69 13/57/70 17/60/71 20/64/72
f 17/97/73 18/98/74 22/99/75 21/100/76
f 18/17/77 19/18/78 23/19/79 22/20/80
f 19/101/81 20/102/82 24/103/83 23/104/84
f 20/21/85 17/22/86 21/23/87 24/24/88
f 25/25/89 26/26/90 28/27/91 27/28/92
f 27/65/93 28/66/94 30/67/95 29/68/96
f 29/29/97 30/30/98 32/31/99 31/32/100
f 31/69/101 32/70/102 26/71/103 25/72/104
f 26/105/105 32/106/106 30/107/107 28/108/108
f 31/109/109 25/110/110 27/111/111 29/112/112
f 33/33/113 34/34/114 36/35/115 35/36/116
f 35/73/117 36/74/118 38/75/119 37/76/120
f 37/37/121 38/38/122 40/39/123 39/40/124
f 39/77/125 40/78/126 34/79/127 33/80/128
f 34/113/129 40/114/130 38/115/131 36/116/132
f 39/117/133 33/118/134 35/119/135 37/120/136
