# This file uses centimeters as units for non-parametric coordinates.

mtllib building8.mtl
g default
v 114.361176 0.183226 43.112907
v 133.943314 0.183226 43.112907
v 114.361176 50.958000 43.112907
v 133.943314 50.958000 43.112907
v 114.361176 50.958000 23.668518
v 133.943314 50.958000 23.668518
v 114.361176 0.183226 23.668518
v 133.943314 0.183226 23.668518
v 124.152245 50.958000 43.112907
v 124.152245 50.958000 19.021683
v 124.152245 0.183226 19.021683
v 124.152245 0.183226 43.112907
vt 0.233501 0.439345
vt 0.452785 0.439345
vt 0.452785 0.658631
vt 0.233501 0.658631
vt 0.275012 0.220060
vt 0.494297 0.220060
vt 0.494297 0.439345
vt 0.275012 0.439345
vt 0.176423 0.658631
vt 0.244513 0.658631
vt 0.244513 0.827355
vt 0.176423 0.794811
vt 0.312604 0.658631
vt 0.312604 0.794811
vt 0.316523 0.691162
vt 0.384613 0.658618
vt 0.384613 0.827343
vt 0.316523 0.827343
vt 0.452704 0.691162
vt 0.452704 0.827343
vt 0.275012 0.000000
vt 0.385042 0.000000
vt 0.385042 0.220060
vt 0.275012 0.220060
vt 0.495072 0.000000
vt 0.495072 0.220060
vt 0.000000 0.506029
vt 0.000000 0.390267
vt 0.231525 0.390267
vt 0.231525 0.506029
vt 0.000000 0.274505
vt 0.231525 0.274505
vn 0.000000 0.000000 1.000000
vn 0.000000 0.000000 1.000000
vn 0.000000 0.000000 1.000000
vn 0.000000 0.000000 1.000000
vn 0.000000 1.000000 0.000000
vn 0.000000 1.000000 0.000000
vn 0.000000 1.000000 0.000000
vn 0.000000 1.000000 0.000000
vn -0.428762 0.000000 -0.903418
vn 0.000000 0.000000 -1.000000
vn 0.000000 0.000000 -1.000000
vn -0.428762 0.000000 -0.903418
vn 0.000000 -1.000000 0.000000
vn 0.000000 -1.000000 0.000000
vn 0.000000 -1.000000 0.000000
vn 0.000000 -1.000000 0.000000
vn 1.000000 0.000000 0.000000
vn 1.000000 0.000000 0.000000
vn 1.000000 0.000000 0.000000
vn 1.000000 0.000000 0.000000
vn -1.000000 0.000000 0.000000
vn -1.000000 0.000000 0.000000
vn -1.000000 0.000000 0.000000
vn -1.000000 0.000000 0.000000
vn 0.000000 1.000000 0.000000
vn 0.000000 1.000000 0.000000
vn 0.428762 0.000000 -0.903418
vn 0.428762 0.000000 -0.903418
vn 0.000000 -1.000000 0.000000
vn 0.000000 -1.000000 0.000000
vn 0.000000 0.000000 1.000000
vn 0.000000 0.000000 1.000000
s 1
g building7 group19
usemtl initialShadingGroup
f 1/21/1 12/22/2 9/23/3 3/24/4
s 2
f 3/9/5 9/10/6 10/11/7 5/12/8
s 3
f 5/27/9 10/28/10 11/29/11 7/30/12
s 4
f 7/15/13 11/16/14 12/17/15 1/18/16
s off
f 2/1/17 8/2/18 6/3/19 4/4/20
f 7/5/21 1/6/22 3/7/23 5/8/24
s 2
f 9/10/6 4/13/25 6/14/26 10/11/7
s 3
f 11/29/11 10/28/10 6/31/27 8/32/28
s 4
f 12/17/15 11/16/14 8/19/29 2/20/30
s 1
f 9/23/3 12/22/2 2/25/31 4/26/32
