# This file uses centimeters as units for non-parametric coordinates.

mtllib crane.mtl
g default
v 147.079803 37.814754 -21.894375
v 149.315094 37.814754 -21.894375
v 147.079803 40.229671 -21.894375
v 149.315094 40.229671 -21.894375
v 147.079803 40.229671 -34.236530
v 149.315094 40.229671 -34.236530
v 147.079803 37.814754 -34.236530
v 149.315094 37.814754 -34.236530
v 147.110779 37.787106 38.236420
v 149.346069 37.787106 38.236420
v 148.002060 40.204063 36.684853
v 148.392838 40.204063 36.684853
v 148.002060 40.204063 -19.270546
v 148.392838 40.204063 -19.270546
v 147.079803 37.789146 -19.270546
v 149.315094 37.789146 -19.270546
v 147.079803 0.183226 -19.864079
v 149.315079 0.183226 -19.864079
v 147.941406 50.958000 -20.652809
v 148.453476 50.958000 -20.652809
v 147.941406 50.958000 -21.121592
v 148.453476 50.958000 -21.121592
v 147.079803 0.183226 -21.910322
v 149.315079 0.183226 -21.910322
v 147.079803 37.777695 -19.864079
v 147.079803 37.777695 -21.910322
v 149.315079 37.777695 -21.910322
v 149.315079 37.777695 -19.864079
v 147.079803 38.049198 -21.910322
v 147.079803 38.049198 -19.864079
v 149.315079 38.049198 -19.864079
v 149.315079 38.049198 -21.910322
v 149.315079 37.777695 -19.236572
v 147.079803 37.777695 -19.236572
v 149.315079 38.049198 -19.236572
v 147.079803 38.049198 -19.236572
vt 0.585226 0.577142
vt 0.585226 0.450517
vt 0.610002 0.450517
vt 0.610002 0.577142
vt 0.558625 0.577143
vt 0.558625 0.450517
vt 0.583401 0.450517
vt 0.583401 0.577143
vt 0.678330 0.611083
vt 0.678352 0.000022
vt 0.704012 0.000022
vt 0.704012 0.594596
vt 0.704953 0.609775
vt 0.704931 0.000000
vt 0.730560 0.016452
vt 0.730560 0.609775
vt 0.777874 0.000022
vt 0.798871 0.000022
vt 0.798871 0.385799
vt 0.777874 0.385799
vt 0.798871 0.388585
vt 0.777874 0.388585
vt 0.790778 0.521049
vt 0.785967 0.521049
vt 0.771434 0.388585
vt 0.771434 0.385799
vt 0.744833 0.009759
vt 0.765831 0.009759
vt 0.765831 0.395538
vt 0.744833 0.395538
vt 0.765831 0.398324
vt 0.744833 0.398324
vt 0.772270 0.395538
vt 0.772270 0.398324
vt 0.757737 0.530789
vt 0.752927 0.530789
vt 0.199509 0.484880
vt 0.222442 0.484880
vt 0.222442 0.611506
vt 0.199509 0.611506
vt 0.172908 0.484871
vt 0.195841 0.484871
vt 0.195841 0.611497
vt 0.172908 0.611497
vt 0.736569 0.016508
vt 0.740721 0.016508
vt 0.740721 0.611056
vt 0.736569 0.611056
vt 0.727099 0.000022
vt 0.750850 0.000022
vt 0.846804 0.000022
vt 0.869738 0.000022
vt 0.870055 0.590020
vt 0.847122 0.590020
vt 0.771434 0.520910
vt 0.771434 0.515656
vt 0.776244 0.515656
vt 0.776244 0.520910
vt 0.203942 0.634439
vt 0.203942 0.611506
vt 0.224936 0.611506
vt 0.224936 0.634439
vt 0.172908 0.467554
vt 0.172908 0.444621
vt 0.179346 0.444621
vt 0.179346 0.467554
vt 0.941913 0.621851
vt 0.941913 0.644784
vt 0.935475 0.644784
vt 0.935475 0.621851
vt 0.846804 0.590020
vt 0.869738 0.590020
vt 0.869738 0.614796
vt 0.846804 0.614796
vt 0.846804 0.614796
vt 0.869738 0.614796
vt 0.869738 0.639572
vt 0.846804 0.639572
vt 0.625723 0.489569
vt 0.629732 0.489569
vt 0.639194 0.514346
vt 0.616261 0.514346
vt 0.146307 0.388293
vt 0.169240 0.388293
vt 0.169240 0.773997
vt 0.146307 0.773997
vt 0.119705 0.523539
vt 0.142642 0.523539
vt 0.142642 0.909306
vt 0.119705 0.909306
vt 0.119705 0.520753
vt 0.142642 0.520753
vt 0.128547 0.388293
vt 0.133801 0.388293
vt 0.248278 0.484499
vt 0.271232 0.484499
vt 0.262384 0.617062
vt 0.257126 0.617062
vt 0.660596 0.520245
vt 0.660596 0.497312
vt 0.663382 0.497312
vt 0.663382 0.520245
vn 0.000000 0.000000 1.000000
vn 0.000000 0.000000 1.000000
vn 0.000000 0.000000 1.000000
vn 0.000000 0.000000 1.000000
vn 0.000000 1.000000 0.000000
vn 0.000000 1.000000 0.000000
vn 0.000000 1.000000 0.000000
vn 0.000000 1.000000 0.000000
vn 0.000000 0.000000 -1.000000
vn 0.000000 0.000000 -1.000000
vn 0.000000 0.000000 -1.000000
vn 0.000000 0.000000 -1.000000
vn 0.000000 -1.000000 0.000000
vn 0.000000 -1.000000 0.000000
vn 0.000000 -1.000000 0.000000
vn 0.000000 -1.000000 0.000000
vn 1.000000 0.000000 0.000000
vn 1.000000 0.000000 0.000000
vn 1.000000 0.000000 0.000000
vn 1.000000 0.000000 0.000000
vn -1.000000 0.000000 0.000000
vn -1.000000 0.000000 0.000000
vn -1.000000 0.000000 0.000000
vn -1.000000 0.000000 0.000000
vn 0.000000 0.540212 0.841529
vn 0.000000 0.540212 0.841529
vn 0.000000 0.540212 0.841529
vn 0.000000 0.540212 0.841529
vn 0.000000 1.000000 0.000000
vn 0.000000 1.000000 0.000000
vn 0.000000 1.000000 0.000000
vn 0.000000 1.000000 0.000000
vn 0.000000 0.000000 -1.000000
vn 0.000000 0.000000 -1.000000
vn 0.000000 0.000000 -1.000000
vn 0.000000 0.000000 -1.000000
vn 0.000000 -1.000000 -0.000036
vn 0.000000 -1.000000 -0.000036
vn 0.000000 -1.000000 -0.000036
vn 0.000000 -1.000000 -0.000036
vn 0.932263 0.361782 -0.000248
vn 0.932263 0.361782 -0.000248
vn 0.932263 0.361782 -0.000248
vn 0.932263 0.361782 -0.000248
vn -0.936200 0.351466 0.000262
vn -0.936200 0.351466 0.000262
vn -0.936200 0.351466 0.000262
vn -0.936200 0.351466 0.000262
vn 0.000000 0.000000 1.000000
vn 0.000000 0.000000 1.000000
vn 0.000000 0.000000 1.000000
vn 0.000000 0.000000 1.000000
vn 0.000000 1.000000 0.000000
vn 0.000000 1.000000 0.000000
vn 0.000000 1.000000 0.000000
vn 0.000000 1.000000 0.000000
vn 0.000000 0.000000 -1.000000
vn 0.000000 0.000000 -1.000000
vn 0.000000 0.000000 -1.000000
vn 0.000000 0.000000 -1.000000
vn 0.000000 -1.000000 0.000000
vn 0.000000 -1.000000 0.000000
vn 0.000000 -1.000000 0.000000
vn 0.000000 -1.000000 0.000000
vn 1.000000 0.000000 0.000000
vn 1.000000 0.000000 0.000000
vn 1.000000 0.000000 0.000000
vn 1.000000 0.000000 0.000000
vn -1.000000 0.000000 0.000000
vn -1.000000 0.000000 0.000000
vn -1.000000 0.000000 0.000000
vn -1.000000 0.000000 0.000000
vn -0.997930 0.064317 0.000000
vn -0.997930 0.064317 0.000000
vn -0.997780 0.066597 0.000000
vn -0.997780 0.066597 0.000000
vn 0.000000 0.060986 -0.998139
vn 0.000000 0.060986 -0.998139
vn 0.000000 0.058890 -0.998264
vn 0.000000 0.058890 -0.998264
vn 0.997930 0.064317 0.000000
vn 0.997930 0.064317 0.000000
vn 0.997780 0.066597 0.000000
vn 0.997780 0.066597 0.000000
vn 0.000000 0.060987 0.998139
vn 0.000000 0.060987 0.998139
vn 0.000000 0.060987 0.998139
vn 0.000000 0.060987 0.998139
vn 0.000000 0.000000 1.000000
vn 0.000000 0.000000 1.000000
vn 0.000000 0.000000 1.000000
vn 0.000000 0.000000 1.000000
vn 0.000000 -1.000000 0.000000
vn 0.000000 -1.000000 0.000000
vn 0.000000 -1.000000 0.000000
vn 0.000000 -1.000000 0.000000
vn 1.000000 0.000000 0.000000
vn 1.000000 0.000000 0.000000
vn 1.000000 0.000000 0.000000
vn 1.000000 0.000000 0.000000
vn 0.000000 1.000000 0.000000
vn 0.000000 1.000000 0.000000
vn 0.000000 1.000000 0.000000
vn 0.000000 1.000000 0.000000
vn -1.000000 0.000000 0.000000
vn -1.000000 0.000000 0.000000
vn -1.000000 0.000000 0.000000
vn -1.000000 0.000000 0.000000
s off
g crane group20 group22
usemtl initialShadingGroup
f 1/71/1 2/72/2 4/73/3 3/74/4
f 3/37/5 4/38/6 6/39/7 5/40/8
f 5/75/9 6/76/10 8/77/11 7/78/12
f 7/41/13 8/42/14 2/43/15 1/44/16
f 2/1/17 8/2/18 6/3/19 4/4/20
f 7/5/21 1/6/22 3/7/23 5/8/24
f 9/49/25 10/50/26 12/46/27 11/45/28
f 11/45/29 12/46/30 14/47/31 13/48/32
f 13/79/33 14/80/34 16/81/35 15/82/36
f 15/51/37 16/52/38 10/53/39 9/54/40
f 10/9/41 16/10/42 14/11/43 12/12/44
f 15/13/45 9/14/46 11/15/47 13/16/48
f 17/83/49 18/84/50 28/85/51 25/86/52
f 19/55/53 20/56/54 22/57/55 21/58/56
s 1
f 26/87/57 27/88/58 24/89/59 23/90/60
s off
f 23/59/61 24/60/62 18/61/63 17/62/64
s 2
f 18/17/65 24/18/66 27/19/67 28/20/68
s 3
f 23/27/69 17/28/70 25/29/71 26/30/72
f 29/32/73 30/31/74 19/35/75 21/36/76
s 1
f 21/93/77 22/94/78 32/92/79 29/91/80
s 2
f 31/22/81 32/21/82 22/23/83 20/24/84
s off
f 30/95/85 31/96/86 20/97/87 19/98/88
s 3
f 26/30/72 25/29/71 30/31/74 29/32/73
s off
f 34/99/89 33/100/90 35/101/91 36/102/92
s 2
f 28/20/68 27/19/67 32/21/82 31/22/81
s 1
f 29/91/80 32/92/79 27/88/58 26/87/57
s off
f 25/63/93 28/64/94 33/65/95 34/66/96
f 28/20/97 31/22/98 35/25/99 33/26/100
f 31/67/101 30/68/102 36/69/103 35/70/104
f 30/31/105 25/29/106 34/33/107 36/34/108
