# This file uses centimeters as units for non-parametric coordinates.

mtllib street_light.mtl
g default
v 40.888290 0.051918 8.452902
v 40.809700 0.051918 8.395803
v 40.712563 0.051918 8.395803
v 40.633972 0.051918 8.452902
v 40.603954 0.051918 8.545288
v 40.633972 0.051918 8.637674
v 40.712563 0.051918 8.694773
v 40.809700 0.051918 8.694773
v 40.888290 0.051918 8.637674
v 40.918308 0.051918 8.545288
v 40.888290 8.952952 8.452902
v 40.809700 8.952952 8.395803
v 40.712563 8.952952 8.395803
v 40.633972 8.952952 8.452902
v 40.603954 8.952952 8.545288
v 40.633972 8.952952 8.637674
v 40.712563 8.952952 8.694773
v 40.809700 8.952952 8.694773
v 40.888290 8.952952 8.637674
v 40.918308 8.952952 8.545288
v 40.761131 0.051918 8.545288
v 40.761131 8.952952 8.545288
v 40.944458 8.016302 8.128500
v 40.538765 8.016302 8.128500
v 40.944458 8.875399 8.128500
v 40.538765 8.875399 8.128500
v 40.944458 8.875399 8.448351
v 40.538765 8.875399 8.448351
v 40.944458 8.016302 8.448351
v 40.538765 8.016302 8.448351
v 40.741611 8.875399 8.047696
v 40.741611 8.875399 8.448351
v 40.741611 8.016302 8.448351
v 40.741611 8.016302 8.047696
v 40.672497 8.432181 8.520255
v 40.814468 8.432181 8.520255
v 40.672497 8.591537 8.566238
v 40.814468 8.591537 8.566238
v 40.672497 9.234002 6.339738
v 40.814468 9.234002 6.339738
v 40.672497 9.074647 6.293756
v 40.814468 9.074647 6.293756
v 40.568382 9.350863 6.373460
v 40.918587 9.350863 6.373460
v 40.918587 8.957785 6.260034
v 40.568382 8.957785 6.260034
v 40.568382 9.462716 5.462889
v 40.918587 9.462716 5.462889
v 40.918587 9.069638 5.349463
v 40.568382 9.069638 5.349463
v 40.603630 8.969044 6.168382
v 40.883339 8.969044 6.168382
v 40.603630 9.058380 5.441115
v 40.883339 9.058380 5.441115
v 40.603630 8.934068 6.162402
v 40.883339 8.934068 6.162402
v 40.603630 9.024315 5.435247
v 40.883339 9.024315 5.435247
v 40.306137 1.172811 8.355136
v 40.306137 1.172811 8.760827
v 40.306137 2.031907 8.355136
v 40.306137 2.031907 8.760827
v 40.625992 2.031907 8.355136
v 40.625992 2.031907 8.760827
v 40.625992 1.172811 8.355136
v 40.625992 1.172811 8.760827
v 40.225334 2.031907 8.557981
v 40.625992 2.031907 8.557981
v 40.625992 1.172811 8.557981
v 40.225334 1.172811 8.557981
vt 0.102639 0.576750
vt 0.103720 0.576750
vt 0.103720 0.680859
vt 0.102639 0.680859
vt 0.104800 0.576750
vt 0.104800 0.680859
vt 0.101971 0.576750
vt 0.101971 0.680859
vt 0.105468 0.576750
vt 0.105468 0.680859
vt 0.115940 0.525246
vt 0.117020 0.525246
vt 0.117020 0.629356
vt 0.115940 0.629356
vt 0.118101 0.525246
vt 0.118101 0.629356
vt 0.115272 0.525246
vt 0.115272 0.629356
vt 0.118769 0.525246
vt 0.118769 0.629356
vt 0.780302 0.510265
vt 0.783583 0.510265
vt 0.783583 0.519079
vt 0.780302 0.519079
vt 0.744833 0.518491
vt 0.748115 0.518491
vt 0.748115 0.527305
vt 0.744833 0.527305
vt 0.767001 0.421160
vt 0.773592 0.398317
vt 0.775227 0.398789
vt 0.768636 0.421632
vt 0.773592 0.372405
vt 0.767001 0.349561
vt 0.768636 0.349089
vt 0.775227 0.371933
vt 0.527190 0.597434
vt 0.523157 0.596271
vt 0.524304 0.586928
vt 0.528337 0.588092
vt 0.310347 0.645307
vt 0.314380 0.644143
vt 0.315528 0.653485
vt 0.311495 0.654649
vt 0.425978 0.647941
vt 0.426894 0.655402
vt 0.426545 0.655463
vt 0.425619 0.648003
vt 0.413594 0.647979
vt 0.412677 0.655440
vt 0.412318 0.655379
vt 0.413244 0.647919
vt 0.771434 0.349094
vt 0.773594 0.349094
vt 0.773594 0.358238
vt 0.771434 0.358238
vt 0.775753 0.349094
vt 0.775753 0.358238
vt 0.123868 0.443901
vt 0.121786 0.443901
vt 0.121786 0.435087
vt 0.123868 0.435087
vt 0.119705 0.443901
vt 0.119705 0.435087
vt 0.722666 0.009249
vt 0.723251 0.008443
vt 0.724199 0.009747
vt 0.724199 0.008135
vt 0.722666 0.010246
vt 0.725147 0.008443
vt 0.723251 0.011052
vt 0.725733 0.009249
vt 0.724199 0.011360
vt 0.725733 0.010246
vt 0.725147 0.011052
vt 0.796084 0.517704
vt 0.796669 0.518510
vt 0.795136 0.519008
vt 0.796669 0.519506
vt 0.795136 0.517396
vt 0.796084 0.520313
vt 0.794188 0.517704
vt 0.795136 0.520621
vt 0.793602 0.518510
vt 0.794188 0.520313
vt 0.793602 0.519506
vt 0.269293 0.388293
vt 0.270122 0.390374
vt 0.266012 0.390374
vt 0.266012 0.388293
vt 0.269293 0.392455
vt 0.266012 0.392455
vt 0.265689 0.388293
vt 0.265689 0.390374
vt 0.261578 0.390374
vt 0.262407 0.388293
vt 0.265689 0.392455
vt 0.262407 0.392455
vt 0.665030 0.646164
vt 0.666516 0.646164
vt 0.666516 0.669468
vt 0.665030 0.669468
vt 0.594093 0.646357
vt 0.595579 0.646357
vt 0.595579 0.669662
vt 0.594093 0.669662
vt 0.673897 0.435088
vt 0.677503 0.435088
vt 0.677503 0.444465
vt 0.673897 0.444465
vt 0.694512 0.655250
vt 0.691631 0.655250
vt 0.691631 0.647761
vt 0.694512 0.647761
vt 0.123312 0.453278
vt 0.119705 0.453278
vt 0.120068 0.452335
vt 0.122949 0.452335
vt 0.119705 0.443901
vt 0.120068 0.444845
vt 0.123312 0.443901
vt 0.122949 0.444845
vt 0.218072 0.482937
vt 0.217243 0.480857
vt 0.221354 0.480857
vt 0.221354 0.482937
vt 0.218072 0.478775
vt 0.221354 0.478775
vt 0.243521 0.477784
vt 0.243521 0.479865
vt 0.239411 0.479865
vt 0.240240 0.477784
vt 0.243521 0.481946
vt 0.240240 0.481946
vt 0.200506 0.730054
vt 0.199509 0.730054
vt 0.199509 0.638734
vt 0.200506 0.638734
vt 0.026601 0.639104
vt 0.027598 0.639104
vt 0.027598 0.730427
vt 0.026601 0.730427
vt 0.766886 0.009167
vt 0.764727 0.009167
vt 0.764727 0.000022
vt 0.766886 0.000022
vt 0.762567 0.009167
vt 0.762567 0.000022
vt 0.775597 0.420627
vt 0.773516 0.420627
vt 0.773516 0.411813
vt 0.775597 0.411813
vt 0.771434 0.420627
vt 0.771434 0.411813
vt 0.727099 0.012241
vt 0.728585 0.012241
vt 0.728585 0.013909
vt 0.727099 0.013909
vt 0.177341 0.480010
vt 0.181007 0.480010
vt 0.181007 0.484124
vt 0.177341 0.484124
vt 0.173997 0.482901
vt 0.175483 0.482901
vt 0.176573 0.484124
vt 0.172908 0.484124
vt 0.175483 0.481233
vt 0.176573 0.480010
vt 0.173997 0.481233
vt 0.172908 0.480010
vt 0.204304 0.648772
vt 0.204304 0.651663
vt 0.203942 0.651663
vt 0.203942 0.648772
vt 0.208376 0.651664
vt 0.208376 0.648772
vt 0.208728 0.648772
vt 0.208728 0.651664
vt 0.780302 0.501451
vt 0.783583 0.501451
vt 0.783583 0.510265
vt 0.780302 0.510265
vt 0.801317 0.517499
vt 0.798036 0.517499
vt 0.798036 0.508685
vt 0.801317 0.508685
vn 0.587777 0.000000 -0.809023
vn 0.587777 0.000000 -0.809023
vn 0.587777 0.000000 -0.809023
vn 0.587777 0.000000 -0.809023
vn 0.000000 0.000000 -1.000000
vn 0.000000 0.000000 -1.000000
vn 0.000000 0.000000 -1.000000
vn 0.000000 0.000000 -1.000000
vn -0.587777 0.000000 -0.809023
vn -0.587777 0.000000 -0.809023
vn -0.587777 0.000000 -0.809023
vn -0.587777 0.000000 -0.809023
vn -0.951057 0.000000 -0.309014
vn -0.951057 0.000000 -0.309014
vn -0.951057 0.000000 -0.309014
vn -0.951057 0.000000 -0.309014
vn -0.951057 0.000000 0.309014
vn -0.951057 0.000000 0.309014
vn -0.951057 0.000000 0.309014
vn -0.951057 0.000000 0.309014
vn -0.587777 0.000000 0.809023
vn -0.587777 0.000000 0.809023
vn -0.587777 0.000000 0.809023
vn -0.587777 0.000000 0.809023
vn 0.000000 0.000000 1.000000
vn 0.000000 0.000000 1.000000
vn 0.000000 0.000000 1.000000
vn 0.000000 0.000000 1.000000
vn 0.587777 0.000000 0.809023
vn 0.587777 0.000000 0.809023
vn 0.587777 0.000000 0.809023
vn 0.587777 0.000000 0.809023
vn 0.951057 0.000000 0.309014
vn 0.951057 0.000000 0.309014
vn 0.951057 0.000000 0.309014
vn 0.951057 0.000000 0.309014
vn 0.951057 0.000000 -0.309014
vn 0.951057 0.000000 -0.309014
vn 0.951057 0.000000 -0.309014
vn 0.951057 0.000000 -0.309014
vn 0.000000 -1.000000 0.000000
vn 0.000000 -1.000000 -0.000000
vn 0.000000 -1.000000 0.000000
vn 0.000000 -1.000000 0.000000
vn 0.000000 -1.000000 -0.000000
vn 0.000000 -1.000000 -0.000000
vn 0.000000 -1.000000 0.000000
vn 0.000000 -1.000000 0.000000
vn 0.000000 -1.000000 0.000000
vn 0.000000 -1.000000 0.000000
vn 0.000000 -1.000000 0.000000
vn 0.000000 1.000000 0.000000
vn 0.000000 1.000000 0.000000
vn 0.000000 1.000000 0.000000
vn 0.000000 1.000000 -0.000002
vn 0.000000 1.000000 -0.000002
vn 0.000000 1.000000 0.000000
vn 0.000000 1.000000 0.000000
vn 0.000000 1.000000 0.000000
vn 0.000000 1.000000 0.000002
vn 0.000000 1.000000 0.000002
vn 0.000000 1.000000 0.000000
vn 0.370069 0.000000 -0.929004
vn 0.000000 0.000000 -1.000000
vn 0.000000 0.000000 -1.000000
vn 0.370069 0.000000 -0.929004
vn 0.000000 1.000000 0.000000
vn 0.000000 1.000000 0.000000
vn 0.000000 1.000000 0.000000
vn 0.000000 1.000000 0.000000
vn 0.000000 0.000000 1.000000
vn 0.000000 0.000000 1.000000
vn 0.000000 0.000000 1.000000
vn 0.000000 0.000000 1.000000
vn 0.000000 -1.000000 0.000000
vn 0.000000 -1.000000 0.000000
vn 0.000000 -1.000000 0.000000
vn 0.000000 -1.000000 0.000000
vn -1.000000 0.000000 0.000000
vn -1.000000 0.000000 0.000000
vn -1.000000 0.000000 0.000000
vn -1.000000 0.000000 0.000000
vn 1.000000 0.000000 0.000000
vn 1.000000 0.000000 0.000000
vn 1.000000 0.000000 0.000000
vn 1.000000 0.000000 0.000000
vn 0.000000 1.000000 0.000000
vn 0.000000 1.000000 0.000000
vn 0.000000 0.000000 1.000000
vn 0.000000 0.000000 1.000000
vn 0.000000 -1.000000 0.000000
vn 0.000000 -1.000000 0.000000
vn -0.370069 0.000000 -0.929004
vn -0.370069 0.000000 -0.929004
vn 0.000000 -0.277248 0.960799
vn 0.000000 -0.277248 0.960799
vn 0.000000 -0.277248 0.960799
vn 0.000000 -0.277248 0.960799
vn 0.000000 0.960800 0.277241
vn 0.000000 0.960800 0.277241
vn 0.000000 0.960800 0.277241
vn 0.000000 0.960800 0.277241
vn 0.000000 0.277245 -0.960799
vn 0.000000 0.277245 -0.960799
vn 0.000000 0.277245 -0.960799
vn 0.000000 0.277245 -0.960799
vn 0.000000 -0.960800 -0.277241
vn 0.000000 -0.960800 -0.277241
vn 0.000000 -0.960800 -0.277241
vn 0.000000 -0.960800 -0.277241
vn 1.000000 0.000018 0.000000
vn 1.000000 0.000018 0.000000
vn 1.000000 0.000018 0.000000
vn 1.000000 0.000018 0.000000
vn -1.000000 -0.000008 0.000000
vn -1.000000 -0.000008 0.000000
vn -1.000000 -0.000008 0.000000
vn -1.000000 -0.000008 0.000000
vn 0.000000 -0.277252 0.960797
vn 0.000000 -0.277252 0.960797
vn 0.000000 -0.277252 0.960797
vn 0.000000 -0.277252 0.960797
vn 0.000000 -0.277241 0.960800
vn 0.000000 -0.277241 0.960800
vn 0.000000 -0.277241 0.960800
vn 0.000000 -0.277241 0.960800
vn 0.000000 -0.277252 0.960797
vn 0.000000 -0.277252 0.960797
vn 0.000000 -0.277252 0.960797
vn 0.000000 -0.277252 0.960797
vn 0.000000 -0.277246 0.960799
vn 0.000000 -0.277246 0.960799
vn 0.000000 -0.277246 0.960799
vn 0.000000 -0.277246 0.960799
vn 0.000000 0.992540 0.121921
vn 0.000000 0.992540 0.121921
vn 0.000000 0.992540 0.121921
vn 0.000000 0.992540 0.121921
vn 1.000000 0.000000 0.000000
vn 1.000000 0.000000 0.000000
vn 1.000000 0.000000 0.000000
vn 1.000000 0.000000 0.000000
vn 0.000000 -0.992386 -0.123165
vn 0.000000 -0.992386 -0.123165
vn 0.000000 -0.992386 -0.123165
vn 0.000000 -0.992386 -0.123165
vn -1.000000 0.000000 0.000000
vn -1.000000 0.000000 0.000000
vn -1.000000 0.000000 0.000000
vn -1.000000 0.000000 0.000000
vn 0.000000 -0.992538 -0.121934
vn 0.000000 -0.992538 -0.121934
vn 0.000000 -0.992538 -0.121934
vn 0.000000 -0.992538 -0.121934
vn 0.000012 -0.992539 -0.121929
vn 0.000012 -0.992539 -0.121929
vn 0.000012 -0.992539 -0.121929
vn 0.000012 -0.992539 -0.121929
vn 0.000000 -0.992540 -0.121917
vn 0.000000 -0.992540 -0.121917
vn 0.000000 -0.992540 -0.121917
vn 0.000000 -0.992540 -0.121917
vn -0.000013 -0.992538 -0.121935
vn -0.000013 -0.992538 -0.121936
vn -0.000013 -0.992538 -0.121935
vn -0.000013 -0.992538 -0.121935
vn 0.000000 -0.168540 0.985695
vn 0.000000 -0.168540 0.985695
vn 0.000000 -0.168540 0.985695
vn 0.000000 -0.168540 0.985695
vn -1.000000 -0.000051 0.000000
vn -1.000000 -0.000051 0.000000
vn -1.000000 -0.000051 0.000000
vn -1.000000 -0.000051 0.000000
vn 0.000000 0.169755 -0.985486
vn 0.000000 0.169755 -0.985486
vn 0.000000 0.169755 -0.985486
vn 0.000000 0.169755 -0.985486
vn 1.000000 0.000030 0.000000
vn 1.000000 0.000030 0.000000
vn 1.000000 0.000030 0.000000
vn 1.000000 0.000030 0.000000
vn -0.929005 0.000000 -0.370067
vn -1.000000 0.000000 -0.000000
vn -1.000000 0.000000 -0.000000
vn -0.929005 0.000000 -0.370067
vn 0.000000 1.000000 0.000001
vn 0.000000 1.000000 0.000000
vn 0.000000 1.000000 0.000000
vn 0.000000 1.000000 0.000001
vn 1.000000 0.000000 0.000000
vn 1.000000 0.000000 0.000000
vn 1.000000 0.000000 0.000000
vn 1.000000 0.000000 0.000000
vn 0.000000 -1.000000 -0.000000
vn 0.000000 -1.000000 -0.000000
vn 0.000000 -1.000000 -0.000000
vn 0.000000 -1.000000 -0.000000
vn 0.000000 0.000000 1.000000
vn 0.000000 0.000000 1.000000
vn 0.000000 0.000000 1.000000
vn 0.000000 0.000000 1.000000
vn 0.000000 0.000000 -1.000000
vn 0.000000 0.000000 -1.000000
vn 0.000000 0.000000 -1.000000
vn 0.000000 0.000000 -1.000000
vn 0.000000 1.000000 -0.000001
vn 0.000000 1.000000 -0.000001
vn 1.000000 0.000000 0.000000
vn 1.000000 0.000000 0.000000
vn 0.000000 -1.000000 0.000000
vn 0.000000 -1.000000 0.000000
vn -0.929005 0.000000 0.370066
vn -0.929005 0.000000 0.370066
s off
g street_light group21 group22
usemtl initialShadingGroup
f 1/15/1 2/19/2 12/20/3 11/16/4
f 2/135/5 3/136/6 13/137/7 12/138/8
f 3/7/9 4/1/10 14/4/11 13/8/12
f 4/1/13 5/2/14 15/3/15 14/4/16
f 5/2/17 6/5/18 16/6/19 15/3/20
f 6/5/21 7/9/22 17/10/23 16/6/24
f 7/139/25 8/140/26 18/141/27 17/142/28
f 8/17/29 9/11/30 19/14/31 18/18/32
f 9/11/33 10/12/34 20/13/35 19/14/36
f 10/12/37 1/15/38 11/16/39 20/13/40
s 1
f 2/65/41 1/66/42 21/67/43
f 3/69/44 2/65/41 21/67/43
f 4/71/45 3/69/44 21/67/43
f 5/73/46 4/71/45 21/67/43
f 6/75/47 5/73/46 21/67/43
f 7/74/48 6/75/47 21/67/43
f 8/72/49 7/74/48 21/67/43
f 9/70/50 8/72/49 21/67/43
f 10/68/51 9/70/50 21/67/43
f 1/66/42 10/68/51 21/67/43
s 2
f 11/76/52 12/77/53 22/78/54
f 12/77/53 13/79/55 22/78/54
f 13/79/55 14/81/56 22/78/54
f 14/81/56 15/83/57 22/78/54
f 15/83/57 16/85/58 22/78/54
f 16/85/58 17/86/59 22/78/54
f 17/86/59 18/84/60 22/78/54
f 18/84/60 19/82/61 22/78/54
f 19/82/61 20/80/62 22/78/54
f 20/80/62 11/76/52 22/78/54
s 3
f 23/143/63 34/144/64 31/145/65 25/146/66
s 4
f 25/87/67 31/88/68 32/89/69 27/90/70
s 5
f 27/149/71 32/150/72 33/151/73 29/152/74
s 6
f 29/93/75 33/94/76 34/95/77 23/96/78
s off
f 24/21/79 30/22/80 28/23/81 26/24/82
f 29/25/83 23/26/84 25/27/85 27/28/86
s 4
f 31/88/68 26/91/87 28/92/88 32/89/69
s 5
f 33/151/73 32/150/72 28/153/89 30/154/90
s 6
f 34/95/77 33/94/76 30/97/91 24/98/92
s 3
f 31/145/65 34/144/64 24/147/93 26/148/94
s off
f 35/155/95 36/156/96 38/157/97 37/158/98
f 37/99/99 38/100/100 40/101/101 39/102/102
f 47/159/103 48/160/104 49/161/105 50/162/106
f 41/103/107 42/104/108 36/105/109 35/106/110
f 36/29/111 42/30/112 40/31/113 38/32/114
f 41/33/115 35/34/116 37/35/117 39/36/118
f 39/163/119 40/164/120 44/165/121 43/166/122
f 40/164/123 42/167/124 45/168/125 44/165/126
f 42/167/127 41/169/128 46/170/129 45/168/130
f 41/169/131 39/163/132 43/166/133 46/170/134
f 43/107/135 44/108/136 48/109/137 47/110/138
f 44/37/139 45/38/140 49/39/141 48/40/142
f 56/111/143 55/112/144 57/113/145 58/114/146
f 46/41/147 43/42/148 47/43/149 50/44/150
f 45/115/151 46/116/152 51/117/153 52/118/154
f 46/116/155 50/119/156 53/120/157 51/117/158
f 50/119/159 49/121/160 54/122/161 53/120/162
f 49/121/163 45/115/164 52/118/165 54/122/166
f 52/171/167 51/172/168 55/173/169 56/174/170
f 51/45/171 53/46/172 57/47/173 55/48/174
f 53/175/175 54/176/176 58/177/177 57/178/178
f 54/49/179 52/50/180 56/51/181 58/52/182
s 7
f 59/53/183 70/54/184 67/55/185 61/56/186
s 8
f 61/123/187 67/124/188 68/125/189 63/126/190
s 9
f 63/59/191 68/60/192 69/61/193 65/62/194
s 10
f 65/129/195 69/130/196 70/131/197 59/132/198
s off
f 60/179/199 66/180/200 64/181/201 62/182/202
f 65/183/203 59/184/204 61/185/205 63/186/206
s 8
f 67/124/188 62/127/207 64/128/208 68/125/189
s 9
f 69/61/193 68/60/192 64/63/209 66/64/210
s 10
f 70/131/197 69/130/196 66/133/211 60/134/212
s 7
f 67/55/185 70/54/184 60/57/213 62/58/214
