# This file uses centimeters as units for non-parametric coordinates.

mtllib trash.mtl
g default
v 45.654858 0.094897 10.990480
v 45.654858 0.094897 11.348156
v 45.577347 0.744590 10.920234
v 45.577347 0.744590 11.418403
v 46.127029 0.744590 10.920234
v 46.127029 0.744590 11.418403
v 46.049515 0.094897 10.990480
v 46.049515 0.094897 11.348156
v 45.852188 0.744590 11.507030
v 45.852188 0.744590 10.831606
v 45.852188 0.094897 10.926847
v 45.852188 0.094897 11.411789
v 46.219818 0.744590 11.169318
v 46.116138 0.094897 11.169318
v 45.852188 0.094897 11.169318
v 45.588238 0.094897 11.169318
v 45.484558 0.744590 11.169318
v 45.577347 0.820835 10.920234
v 45.484558 0.820835 11.169318
v 45.852188 0.820835 11.169318
v 45.852188 0.820835 10.831606
v 46.219818 0.820835 11.169318
v 46.127029 0.820835 10.920234
v 45.577347 0.820835 11.418403
v 45.852188 0.820835 11.507030
v 46.127029 0.820835 11.418403
v 45.852188 1.052458 11.169318
v 45.852188 1.052458 10.921144
v 46.219818 1.052458 11.169318
v 46.127029 1.052458 10.986274
v 45.852188 1.052458 11.417492
v 46.127029 1.052458 11.352363
vt 0.719256 0.000022
vt 0.721864 0.000022
vt 0.721864 0.005532
vt 0.718232 0.005532
vt 0.724472 0.000022
vt 0.725497 0.005532
vt 0.721864 0.006179
vt 0.718232 0.006179
vt 0.725497 0.006179
vt 0.725497 0.008143
vt 0.721864 0.008143
vt 0.757333 0.000022
vt 0.759941 0.000022
vt 0.760965 0.005532
vt 0.757333 0.005532
vt 0.760965 0.006179
vt 0.757333 0.006179
vt 0.754725 0.000022
vt 0.753700 0.005532
vt 0.753700 0.006179
vt 0.757333 0.008143
vt 0.753700 0.008143
vt 0.271352 0.483400
vt 0.270445 0.480716
vt 0.274036 0.480716
vt 0.274036 0.484356
vt 0.271352 0.478032
vt 0.274036 0.477077
vt 0.765145 0.520875
vt 0.765145 0.518262
vt 0.767723 0.518262
vt 0.767073 0.520190
vt 0.763218 0.520190
vt 0.762567 0.518262
vt 0.765145 0.515649
vt 0.767073 0.516335
vt 0.763218 0.516335
vt 0.239411 0.393633
vt 0.239411 0.390958
vt 0.243001 0.390958
vt 0.242095 0.392931
vt 0.239411 0.388284
vt 0.242095 0.388986
vt 0.611827 0.650976
vt 0.611827 0.648479
vt 0.617104 0.648479
vt 0.617104 0.651957
vt 0.611827 0.645981
vt 0.617104 0.645000
vt 0.617723 0.648479
vt 0.617723 0.651957
vt 0.617723 0.645000
vt 0.696064 0.602181
vt 0.699549 0.602181
vt 0.699549 0.607467
vt 0.697047 0.607467
vt 0.696064 0.601561
vt 0.699549 0.601561
vt 0.703034 0.602181
vt 0.702051 0.607467
vt 0.696988 0.599676
vt 0.699549 0.599676
vt 0.703034 0.601561
vt 0.702110 0.599676
vt 0.975377 0.656913
vt 0.975377 0.652370
vt 0.977189 0.652370
vt 0.977189 0.655709
vt 0.975377 0.647826
vt 0.977189 0.649031
vn -0.926786 -0.147902 -0.345244
vn -0.987504 -0.157593 -0.000000
vn -0.987504 -0.157593 -0.000000
vn -0.926786 -0.147902 -0.345244
vn 0.000000 1.000000 0.000000
vn 0.000000 1.000000 0.000000
vn 0.000000 1.000000 0.000000
vn 0.000000 1.000000 0.000000
vn 0.926783 -0.147905 -0.345251
vn 0.987504 -0.157595 0.000000
vn 0.987504 -0.157595 0.000000
vn 0.926783 -0.147905 -0.345251
vn 0.000000 -1.000000 -0.000000
vn 0.000000 -1.000000 -0.000000
vn 0.000000 -1.000000 -0.000000
vn 0.000000 -1.000000 -0.000000
vn -0.303960 -0.138185 0.942610
vn 0.000000 -0.145047 0.989425
vn 0.000000 -0.145047 0.989425
vn -0.303960 -0.138185 0.942610
vn 0.000000 -0.145046 -0.989425
vn -0.303962 -0.138182 -0.942609
vn -0.303962 -0.138182 -0.942609
vn -0.000000 -0.145046 -0.989425
vn 0.000000 1.000000 0.000000
vn 0.000000 1.000000 -0.000000
vn 0.000000 1.000000 -0.000000
vn 0.000000 1.000000 0.000000
vn 0.303965 -0.138183 -0.942609
vn 0.303965 -0.138183 -0.942609
vn 0.000000 -1.000000 0.000000
vn 0.000000 -1.000000 0.000000
vn 0.303962 -0.138183 0.942610
vn 0.303962 -0.138183 0.942610
vn 0.926783 -0.147904 0.345250
vn 0.926783 -0.147904 0.345250
vn 0.000000 -1.000000 0.000000
vn 0.000000 -1.000000 0.000000
vn 0.000000 -1.000000 0.000000
vn -0.926786 -0.147905 0.345243
vn -0.926786 -0.147905 0.345243
vn 0.000000 1.000000 -0.000000
vn 0.000000 1.000000 -0.000000
vn 0.000000 1.000000 -0.000000
vn 0.000000 1.000000 -0.000000
vn -0.937091 0.000000 -0.349084
vn -0.937091 0.000000 -0.349084
vn -0.937091 0.000000 -0.349084
vn -0.937091 0.000000 -0.349084
vn -0.306908 0.000000 -0.951739
vn -0.306908 0.000000 -0.951739
vn -0.306908 0.000000 -0.951739
vn -0.306908 0.000000 -0.951739
vn 0.937091 0.000000 -0.349084
vn 0.937091 0.000000 -0.349084
vn 0.937091 0.000000 -0.349084
vn 0.937091 0.000000 -0.349084
vn 0.306908 0.000000 -0.951739
vn 0.306908 0.000000 -0.951739
vn 0.306908 0.000000 -0.951739
vn 0.306908 0.000000 -0.951739
vn -0.937091 0.000000 0.349084
vn -0.937091 0.000000 0.349084
vn -0.937091 0.000000 0.349084
vn -0.937091 0.000000 0.349084
vn -0.306905 0.000000 0.951740
vn -0.306905 0.000000 0.951740
vn -0.306905 0.000000 0.951740
vn -0.306905 0.000000 0.951740
vn 0.306905 0.000000 0.951740
vn 0.306905 0.000000 0.951740
vn 0.306905 0.000000 0.951740
vn 0.306905 0.000000 0.951740
vn 0.937091 0.000000 0.349084
vn 0.937091 0.000000 0.349084
vn 0.937091 0.000000 0.349084
vn 0.937091 0.000000 0.349084
vn -1.000000 0.000000 0.000000
vn -1.000000 0.000000 0.000000
vn -1.000000 0.000000 0.000000
vn -1.000000 0.000000 0.000000
vn 0.917401 0.056188 -0.393978
vn 0.917401 0.056188 -0.393978
vn 0.917401 0.056188 -0.393978
vn 0.917401 0.056188 -0.393978
vn 0.256306 0.307741 -0.916298
vn 0.256306 0.307741 -0.916298
vn 0.256306 0.307741 -0.916298
vn 0.256306 0.307741 -0.916298
vn -1.000000 0.000000 0.000000
vn -1.000000 0.000000 0.000000
vn -1.000000 0.000000 0.000000
vn -1.000000 0.000000 0.000000
vn 0.256306 0.307744 0.916297
vn 0.256306 0.307744 0.916297
vn 0.256306 0.307744 0.916297
vn 0.256306 0.307744 0.916297
vn 0.917402 0.056179 0.393977
vn 0.917402 0.056179 0.393977
vn 0.917402 0.056179 0.393977
vn 0.917402 0.056179 0.393977
s 1
g trashcan group21 group22
usemtl initialShadingGroup
f 1/44/1 16/45/2 17/46/3 3/47/4
s 2
f 18/23/5 19/24/6 20/25/7 21/26/8
s 3
f 5/53/9 13/54/10 14/55/11 7/56/12
s 4
f 11/29/13 15/30/14 16/31/15 1/32/16
s 5
f 2/1/17 12/2/18 9/3/19 4/4/20
s 6
f 11/12/21 1/13/22 3/14/23 10/15/24
s 7
f 28/38/25 27/39/26 29/40/27 30/41/28
s 6
f 7/18/29 11/12/21 10/15/24 5/19/30
s 4
f 7/33/31 14/34/32 15/30/14 11/29/13
s 5
f 9/3/19 12/2/18 8/5/33 6/6/34
s 3
f 13/54/10 6/59/35 8/60/36 14/55/11
s 4
f 15/30/14 14/34/32 8/37/37 12/35/38
f 16/31/15 15/30/14 12/35/38 2/36/39
s 1
f 17/46/3 16/45/2 2/48/40 4/49/41
s 2
f 20/25/7 19/24/6 24/27/42 25/28/43
s 7
f 29/40/27 27/39/26 31/42/44 32/43/45
s off
f 3/47/46 17/46/47 19/50/48 18/51/49
f 10/15/50 3/14/51 18/16/52 21/17/53
f 13/54/54 5/53/55 23/57/56 22/58/57
f 5/19/58 10/15/59 21/17/60 23/20/61
f 17/46/62 4/49/63 24/52/64 19/50/65
f 4/4/66 9/3/67 25/7/68 24/8/69
f 9/3/70 6/6/71 26/9/72 25/7/73
f 6/59/74 13/54/75 22/58/76 26/63/77
f 21/65/78 20/66/79 27/67/80 28/68/81
f 22/58/82 23/57/83 30/61/84 29/62/85
f 23/20/86 21/17/87 28/21/88 30/22/89
f 20/66/90 25/69/91 31/70/92 27/67/93
f 25/7/94 26/9/95 32/10/96 31/11/97
f 26/63/98 22/58/99 29/62/100 32/64/101
