# This file uses centimeters as units for non-parametric coordinates.

mtllib tree.mtl
g default
v 58.265453 4.880310 9.837998
v 58.272255 4.880310 9.007506
v 57.912819 4.908871 9.740622
v 57.918072 4.908871 9.099093
v 57.533573 4.946082 9.638650
v 57.537205 4.946082 9.194840
v 57.304466 4.904773 9.415040
v 58.669411 4.736822 9.899487
v 58.677166 4.736822 8.952641
v 59.379707 4.301297 9.816360
v 59.386005 4.301297 9.047390
v 59.749313 3.711149 9.436604
v 56.339230 4.880310 8.966455
v 56.282726 4.880310 9.795051
v 56.685402 4.908871 9.084766
v 56.641758 4.908871 9.724831
v 57.057865 4.946082 9.209258
v 57.027672 4.946082 9.652054
v 57.273174 4.904773 9.446180
v 55.939674 4.736822 8.880895
v 55.875256 4.736822 9.825579
v 55.225677 4.301297 8.921353
v 55.173363 4.301297 9.688568
v 54.834003 3.711149 9.278305
v 57.709129 4.880310 8.461660
v 56.878700 4.880310 8.449657
v 57.609550 4.908871 8.813679
v 56.968063 4.908871 8.804407
v 57.505203 4.946082 9.192279
v 57.061424 4.946082 9.185864
v 57.280163 4.904773 9.419977
v 57.773148 4.736822 8.058094
v 56.826370 4.736822 8.044410
v 57.694473 4.301297 7.347293
v 56.925556 4.301297 7.336179
v 57.317039 3.711149 6.975317
v 57.972942 5.466241 9.837333
v 57.979744 5.466241 9.006841
v 57.701523 5.239023 9.740622
v 57.706776 5.239023 9.099092
v 57.405064 4.999309 9.639328
v 57.408699 4.999309 9.195518
v 57.271042 4.808049 9.416496
v 58.361584 5.647200 9.898696
v 58.369335 5.647200 8.951850
v 59.173748 5.833542 9.816403
v 59.180046 5.833542 9.047433
v 59.851818 5.669175 9.439173
v 57.707962 5.466241 8.744561
v 56.877525 5.466241 8.732558
v 57.609550 5.239023 9.015369
v 56.968067 5.239023 9.006098
v 57.506401 4.999309 9.311188
v 57.062626 4.999309 9.304773
v 57.282738 4.808049 9.443812
v 57.771755 5.647200 8.356313
v 56.824978 5.647200 8.342628
v 57.694553 5.833542 7.543646
v 56.925636 5.833542 7.532533
v 57.321575 5.669175 6.863227
v 56.585835 5.466241 8.971981
v 56.529331 5.466241 9.800576
v 56.850979 5.239023 9.084766
v 56.807331 5.239023 9.724831
v 57.140839 4.999309 9.203625
v 57.110645 4.999309 9.646420
v 57.261284 4.808049 9.434079
v 56.201565 5.647200 8.887464
v 56.137146 5.647200 9.832147
v 55.385925 5.833542 8.920991
v 55.333611 5.833542 9.688206
v 54.686493 5.669175 9.256955
v 56.866787 5.466241 10.152452
v 57.697304 5.466241 10.152452
v 56.961273 5.239023 9.880251
v 57.602821 5.239023 9.880251
v 57.060135 4.999309 9.582973
v 57.503960 4.999309 9.582973
v 57.281860 4.808049 9.447129
v 56.808609 5.647200 10.541582
v 57.755486 5.647200 10.541582
v 56.897549 5.833542 11.353048
v 57.666542 5.833542 11.353048
v 57.280319 5.669175 12.028006
v 56.866787 4.880310 10.362633
v 57.697304 4.880310 10.362633
v 56.961273 4.908871 10.009212
v 57.602821 4.908871 10.009212
v 57.060135 4.946082 9.629144
v 57.503960 4.946082 9.629144
v 57.281860 4.904773 9.398216
v 56.808609 4.736822 10.767082
v 57.755486 4.736822 10.767082
v 56.897549 4.301297 11.476672
v 57.666542 4.301297 11.476672
v 57.280319 3.711149 11.843155
v 57.092125 0.231978 9.609841
v 57.457756 0.231978 9.609841
v 57.216236 4.792215 9.485732
v 57.333645 4.792215 9.485732
v 57.216236 4.792215 9.368320
v 57.333645 4.792215 9.368320
v 57.092125 0.231978 9.244210
v 57.457756 0.231978 9.244210
vt 0.673897 0.388293
vt 0.677649 0.388293
vt 0.676375 0.435088
vt 0.675170 0.435088
vt 0.660596 0.450517
vt 0.664348 0.450517
vt 0.663074 0.497312
vt 0.661870 0.497312
vt 0.412997 0.638214
vt 0.422164 0.638139
vt 0.421153 0.642048
vt 0.414072 0.642106
vt 0.412318 0.633755
vt 0.422770 0.633669
vt 0.420096 0.646252
vt 0.415197 0.646293
vt 0.413236 0.625914
vt 0.421724 0.625845
vt 0.417666 0.648821
vt 0.417428 0.621834
vt 0.971560 0.632158
vt 0.962413 0.632782
vt 0.963188 0.628819
vt 0.970253 0.628337
vt 0.972504 0.636569
vt 0.962076 0.637280
vt 0.963992 0.624559
vt 0.968879 0.624226
vt 0.972057 0.644450
vt 0.963589 0.645027
vt 0.966264 0.621849
vt 0.968117 0.648773
vt 0.435363 0.632416
vt 0.426197 0.632549
vt 0.427183 0.628633
vt 0.434264 0.628531
vt 0.436070 0.636871
vt 0.425619 0.637022
vt 0.428214 0.624422
vt 0.433112 0.624352
vt 0.435201 0.644717
vt 0.426714 0.644840
vt 0.430628 0.621838
vt 0.431035 0.648823
vt 0.368765 0.642073
vt 0.359780 0.642146
vt 0.359116 0.637941
vt 0.369360 0.637858
vt 0.367767 0.645026
vt 0.360826 0.645083
vt 0.360006 0.629155
vt 0.368326 0.629086
vt 0.366724 0.648251
vt 0.361922 0.648290
vt 0.364088 0.621818
vt 0.364333 0.649740
vt 0.372985 0.629546
vt 0.381970 0.629416
vt 0.382660 0.633617
vt 0.372417 0.633765
vt 0.373965 0.626587
vt 0.380905 0.626487
vt 0.381825 0.642409
vt 0.373506 0.642530
vt 0.374988 0.623356
vt 0.379789 0.623286
vt 0.377789 0.649771
vt 0.377369 0.621851
vt 0.386059 0.629759
vt 0.395023 0.629147
vt 0.395938 0.633305
vt 0.385717 0.634002
vt 0.386878 0.626751
vt 0.393803 0.626279
vt 0.395575 0.642129
vt 0.387274 0.642695
vt 0.387727 0.623469
vt 0.392517 0.623143
vt 0.391940 0.649697
vt 0.390024 0.621840
vt 0.355430 0.642122
vt 0.346445 0.642122
vt 0.345815 0.637912
vt 0.356060 0.637912
vt 0.354408 0.645067
vt 0.347467 0.645067
vt 0.346778 0.629132
vt 0.355098 0.629132
vt 0.353338 0.648283
vt 0.348537 0.648283
vt 0.350919 0.621830
vt 0.350936 0.649753
vt 0.399660 0.638172
vt 0.408827 0.638172
vt 0.407785 0.642073
vt 0.400703 0.642073
vt 0.399018 0.633708
vt 0.409470 0.633708
vt 0.406693 0.646269
vt 0.401794 0.646269
vt 0.400000 0.625875
vt 0.408488 0.625875
vt 0.404242 0.648818
vt 0.404225 0.621830
vt 0.713799 0.004462
vt 0.715003 0.004462
vt 0.715003 0.005667
vt 0.713799 0.005667
vt 0.257145 0.483762
vt 0.257145 0.480010
vt 0.260896 0.480010
vt 0.260896 0.483762
vt 0.119705 0.388293
vt 0.123457 0.388293
vt 0.122184 0.435087
vt 0.120979 0.435087
vt 0.138713 0.388293
vt 0.139918 0.388293
vt 0.141191 0.435087
vt 0.137439 0.435087
vn 0.080550 0.996750 0.000659
vn 0.080550 0.996750 0.000659
vn 0.086693 0.996235 0.000709
vn 0.086693 0.996235 0.000709
vn 0.097438 0.995241 0.000797
vn 0.097438 0.995241 0.000797
vn -0.176088 0.984373 -0.001440
vn -0.176088 0.984373 -0.001440
vn -0.176088 0.984373 -0.001440
vn 0.334344 0.942447 0.002738
vn 0.334344 0.942447 0.002738
vn 0.460496 0.887654 0.003772
vn 0.460497 0.887653 0.003772
vn 0.523078 0.852274 0.004284
vn 0.523078 0.852274 0.004284
vn 0.849498 0.527546 0.006957
vn 0.849498 0.527546 0.006957
vn 0.849498 0.527546 0.006957
vn -0.080365 0.996750 -0.005480
vn -0.080365 0.996751 -0.005480
vn -0.086494 0.996235 -0.005898
vn -0.086494 0.996235 -0.005898
vn -0.097214 0.995241 -0.006629
vn -0.097214 0.995241 -0.006629
vn 0.175686 0.984373 0.011981
vn 0.175686 0.984373 0.011981
vn 0.175686 0.984373 0.011981
vn -0.333577 0.942448 -0.022747
vn -0.333577 0.942448 -0.022747
vn -0.459447 0.887653 -0.031330
vn -0.459447 0.887653 -0.031330
vn -0.521889 0.852271 -0.035588
vn -0.521889 0.852271 -0.035588
vn -0.847555 0.527551 -0.057793
vn -0.847555 0.527551 -0.057793
vn -0.847555 0.527551 -0.057793
vn 0.001164 0.996750 -0.080544
vn 0.001164 0.996750 -0.080544
vn 0.001253 0.996235 -0.086686
vn 0.001253 0.996235 -0.086686
vn 0.001408 0.995241 -0.097429
vn 0.001408 0.995241 -0.097429
vn -0.002544 0.984375 0.176066
vn -0.002544 0.984375 0.176066
vn -0.002544 0.984375 0.176066
vn 0.004832 0.942447 -0.334320
vn 0.004832 0.942447 -0.334320
vn 0.006655 0.887653 -0.460466
vn 0.006655 0.887653 -0.460466
vn 0.007560 0.852272 -0.523044
vn 0.007560 0.852272 -0.523044
vn 0.012277 0.527557 -0.849431
vn 0.012277 0.527557 -0.849431
vn 0.012277 0.527557 -0.849431
vn -0.640804 0.767687 -0.005248
vn -0.640804 0.767687 -0.005248
vn -0.636058 0.771624 -0.005209
vn -0.636058 0.771624 -0.005209
vn -0.627693 0.778444 -0.005140
vn -0.627693 0.778444 -0.005140
vn -0.815254 0.579065 -0.006678
vn -0.815254 0.579065 -0.006678
vn -0.815254 0.579065 -0.006678
vn -0.421654 0.906750 -0.003453
vn -0.421654 0.906750 -0.003453
vn -0.293248 0.956033 -0.002401
vn -0.293248 0.956033 -0.002401
vn -0.223805 0.974632 -0.001832
vn -0.223805 0.974632 -0.001832
vn 0.236599 0.971605 0.001938
vn 0.236599 0.971605 0.001938
vn 0.236599 0.971605 0.001938
vn -0.009261 0.767690 0.640754
vn -0.009261 0.767690 0.640754
vn -0.009192 0.771627 0.636009
vn -0.009192 0.771627 0.636009
vn -0.009072 0.778448 0.627644
vn -0.009072 0.778448 0.627644
vn -0.011786 0.579054 0.815204
vn -0.011786 0.579054 0.815204
vn -0.011786 0.579054 0.815204
vn -0.006094 0.906750 0.421624
vn -0.006094 0.906750 0.421624
vn -0.004238 0.956034 0.293226
vn -0.004238 0.956034 0.293226
vn -0.003235 0.974633 0.223787
vn -0.003235 0.974633 0.223787
vn 0.003420 0.971606 -0.236581
vn 0.003420 0.971606 -0.236581
vn 0.003420 0.971606 -0.236581
vn 0.639330 0.767695 0.043597
vn 0.639330 0.767695 0.043597
vn 0.634599 0.771629 0.043274
vn 0.634599 0.771629 0.043274
vn 0.626259 0.778444 0.042705
vn 0.626259 0.778444 0.042705
vn 0.813375 0.579089 0.055462
vn 0.813376 0.579089 0.055462
vn 0.813376 0.579089 0.055462
vn 0.420695 0.906748 0.028688
vn 0.420695 0.906749 0.028688
vn 0.292577 0.956034 0.019951
vn 0.292577 0.956034 0.019951
vn 0.223291 0.974633 0.015227
vn 0.223291 0.974633 0.015227
vn -0.236059 0.971606 -0.016095
vn -0.236059 0.971606 -0.016095
vn -0.236059 0.971606 -0.016095
vn 0.000000 0.767688 -0.640824
vn 0.000000 0.767688 -0.640824
vn 0.000000 0.771626 -0.636077
vn 0.000000 0.771626 -0.636077
vn 0.000000 0.778448 -0.627709
vn 0.000000 0.778448 -0.627709
vn 0.000000 0.579063 -0.815282
vn 0.000000 0.579064 -0.815282
vn 0.000000 0.579063 -0.815282
vn 0.000000 0.906749 -0.421671
vn 0.000000 0.906749 -0.421671
vn 0.000000 0.956033 -0.293258
vn 0.000000 0.956033 -0.293258
vn 0.000000 0.974633 -0.223811
vn 0.000000 0.974633 -0.223811
vn 0.000000 0.971605 0.236608
vn 0.000000 0.971605 0.236608
vn 0.000000 0.971605 0.236608
vn 0.000000 0.996750 0.080552
vn 0.000000 0.996750 0.080552
vn 0.000000 0.996235 0.086695
vn 0.000000 0.996235 0.086695
vn 0.000000 0.995241 0.097440
vn 0.000000 0.995241 0.097440
vn 0.000000 0.984374 -0.176090
vn 0.000000 0.984374 -0.176090
vn 0.000000 0.984374 -0.176090
vn 0.000000 0.942447 0.334356
vn 0.000000 0.942447 0.334356
vn 0.000000 0.887652 0.460515
vn 0.000000 0.887652 0.460515
vn 0.000000 0.852271 0.523100
vn 0.000000 0.852271 0.523100
vn 0.000000 0.527553 0.849522
vn 0.000000 0.527553 0.849522
vn 0.000000 0.527553 0.849522
vn 0.000000 0.027205 0.999630
vn 0.000000 0.027205 0.999630
vn 0.000000 0.027205 0.999630
vn 0.000000 0.027205 0.999630
vn 0.000000 1.000000 0.000000
vn 0.000000 1.000000 0.000000
vn 0.000000 1.000000 0.000000
vn 0.000000 1.000000 0.000000
vn 0.000000 0.027205 -0.999630
vn 0.000000 0.027205 -0.999630
vn 0.000000 0.027205 -0.999630
vn 0.000000 0.027205 -0.999630
vn 0.000000 -1.000000 0.000000
vn 0.000000 -1.000000 0.000000
vn 0.000000 -1.000000 0.000000
vn 0.000000 -1.000000 0.000000
vn 0.999630 0.027206 0.000000
vn 0.999630 0.027206 0.000000
vn 0.999630 0.027206 0.000000
vn 0.999630 0.027206 0.000000
vn -0.999630 0.027206 0.000000
vn -0.999630 0.027206 0.000000
vn -0.999630 0.027206 0.000000
vn -0.999630 0.027206 0.000000
s 1
g tree group21 group22
usemtl initialShadingGroup
f 1/9/1 2/10/2 4/11/3 3/12/4
f 3/12/4 4/11/3 6/15/5 5/16/6
s off
f 5/16/7 6/15/8 7/19/9
s 2
f 2/10/10 1/9/11 8/13/12 9/14/13
f 9/14/13 8/13/12 10/17/14 11/18/15
s off
f 11/18/16 10/17/17 12/20/18
s 3
f 13/21/19 14/22/20 16/23/21 15/24/22
f 15/24/22 16/23/21 18/27/23 17/28/24
s off
f 17/28/25 18/27/26 19/31/27
s 4
f 14/22/28 13/21/29 20/25/30 21/26/31
f 21/26/31 20/25/30 22/29/32 23/30/33
s off
f 23/30/34 22/29/35 24/32/36
s 5
f 25/33/37 26/34/38 28/35/39 27/36/40
f 27/36/40 28/35/39 30/39/41 29/40/42
s off
f 29/40/43 30/39/44 31/43/45
s 6
f 26/34/46 25/33/47 32/37/48 33/38/49
f 33/38/49 32/37/48 34/41/50 35/42/51
s off
f 35/42/52 34/41/53 36/44/54
s 7
f 37/46/55 38/45/56 40/49/57 39/50/58
f 39/50/58 40/49/57 42/53/59 41/54/60
s off
f 41/54/61 42/53/62 43/56/63
s 8
f 38/45/64 37/46/65 44/47/66 45/48/67
f 45/48/67 44/47/66 46/51/68 47/52/69
s off
f 47/52/70 46/51/71 48/55/72
s 9
f 49/58/73 50/57/74 52/61/75 51/62/76
f 51/62/76 52/61/75 54/65/77 53/66/78
s off
f 53/66/79 54/65/80 55/68/81
s 10
f 50/57/82 49/58/83 56/59/84 57/60/85
f 57/60/85 56/59/84 58/63/86 59/64/87
s off
f 59/64/88 58/63/89 60/67/90
s 11
f 61/70/91 62/69/92 64/73/93 63/74/94
f 63/74/94 64/73/93 66/77/95 65/78/96
s off
f 65/78/97 66/77/98 67/80/99
s 12
f 62/69/100 61/70/101 68/71/102 69/72/103
f 69/72/103 68/71/102 70/75/104 71/76/105
s off
f 71/76/106 70/75/107 72/79/108
s 13
f 73/82/109 74/81/110 76/85/111 75/86/112
f 75/86/112 76/85/111 78/89/113 77/90/114
s off
f 77/90/115 78/89/116 79/92/117
s 14
f 74/81/118 73/82/119 80/83/120 81/84/121
f 81/84/121 80/83/120 82/87/122 83/88/123
s off
f 83/88/124 82/87/125 84/91/126
s 15
f 85/93/127 86/94/128 88/95/129 87/96/130
f 87/96/130 88/95/129 90/99/131 89/100/132
s off
f 89/100/133 90/99/134 91/103/135
s 16
f 86/94/136 85/93/137 92/97/138 93/98/139
f 93/98/139 92/97/138 94/101/140 95/102/141
s off
f 95/102/142 94/101/143 96/104/144
f 97/113/145 98/114/146 100/115/147 99/116/148
f 99/105/149 100/106/150 102/107/151 101/108/152
f 101/117/153 102/118/154 104/119/155 103/120/156
f 103/109/157 104/110/158 98/111/159 97/112/160
f 98/1/161 104/2/162 102/3/163 100/4/164
f 103/5/165 97/6/166 99/7/167 101/8/168
